<?xml version="1.0" standalone="no"?>
<!DOCTYPE svg PUBLIC "-//W3C//DTD SVG 20010904//EN"
 "http://www.w3.org/TR/2001/REC-SVG-20010904/DTD/svg10.dtd">
<svg version="1.0" xmlns="http://www.w3.org/2000/svg"
 width="808.000000pt" height="808.000000pt" viewBox="0 0 808.000000 808.000000"
 preserveAspectRatio="xMidYMid meet">
<metadata>
Created by potrace 1.11, written by Peter Selinger 2001-2013
</metadata>
<g transform="translate(0.000000,808.000000) scale(0.100000,-0.100000)"
fill="#000000" stroke="none">
<path d="M3820 8044 c-536 -37 -1080 -178 -1499 -389 -50 -25 -96 -45 -103
-45 -23 0 -231 -121 -388 -226 -711 -473 -1256 -1169 -1542 -1969 -391 -1091
-284 -2322 287 -3321 642 -1122 1789 -1872 3058 -1999 219 -22 548 -33 700
-23 831 54 1649 387 2302 937 340 287 671 685 887 1066 435 768 606 1638 493
2505 -101 771 -442 1518 -963 2111 -655 745 -1567 1221 -2557 1334 -134 15
-559 27 -675 19z m1074 -1269 c60 -29 83 -103 51 -165 -33 -63 19 -60 -1022
-60 l-948 0 -480 -480 -480 -480 661 0 c363 0 1140 -3 1726 -7 l1065 -6 16 48
c34 98 121 201 217 257 144 84 350 79 493 -12 359 -228 268 -768 -148 -875
-153 -39 -328 12 -448 131 -46 46 -101 135 -121 197 -5 16 -34 17 -413 17
l-408 0 -602 -602 -603 -603 -693 -3 -692 -3 -37 -78 c-87 -183 -283 -297
-478 -276 -267 29 -454 248 -438 515 23 350 390 556 707 396 99 -51 192 -156
227 -260 l16 -46 646 0 647 0 480 480 480 480 -1327 2 c-1272 3 -1327 4 -1346
21 -11 11 -28 35 -37 54 -37 77 -53 58 623 735 339 339 628 621 642 627 16 6
381 10 1008 10 860 1 988 -1 1016 -14z m1967 -2431 c38 -39 49 -97 25 -142
-34 -65 10 -62 -908 -62 l-833 0 -485 -485 -485 -485 1078 0 c999 0 1081 -1
1108 -17 31 -18 59 -67 59 -103 0 -34 -28 -79 -63 -100 -30 -19 -53 -20 -382
-20 l-350 0 -575 -576 c-316 -317 -593 -589 -614 -605 l-39 -29 -444 0 c-414
0 -444 -1 -449 -17 -40 -124 -134 -232 -252 -291 l-76 -37 -136 0 -136 0 -76
38 c-256 126 -348 436 -203 683 53 90 141 163 247 205 68 26 198 36 269 19
169 -39 309 -167 363 -332 5 -17 34 -18 412 -18 l406 0 481 480 482 480 -1807
0 -1807 0 -35 31 c-61 53 -57 145 7 191 l32 23 1083 3 1083 2 597 594 c328
326 604 596 612 599 8 3 412 5 897 4 l883 -2 31 -31z m-2444 -3216 c-3 -8 -6
-5 -6 6 -1 11 2 17 5 13 3 -3 4 -12 1 -19z m-10 -100 c-3 -7 -5 -2 -5 12 0 14
2 19 5 13 2 -7 2 -19 0 -25z m-10 -80 c-3 -7 -5 -2 -5 12 0 14 2 19 5 13 2 -7
2 -19 0 -25z m-10 -60 c-3 -8 -6 -5 -6 6 -1 11 2 17 5 13 3 -3 4 -12 1 -19z
m-10 -60 c-3 -8 -6 -5 -6 6 -1 11 2 17 5 13 3 -3 4 -12 1 -19z m-10 -60 c-3
-8 -6 -5 -6 6 -1 11 2 17 5 13 3 -3 4 -12 1 -19z m-10 -50 c-3 -8 -6 -5 -6 6
-1 11 2 17 5 13 3 -3 4 -12 1 -19z m-10 -50 c-3 -8 -6 -5 -6 6 -1 11 2 17 5
13 3 -3 4 -12 1 -19z m-10 -50 c-3 -8 -6 -5 -6 6 -1 11 2 17 5 13 3 -3 4 -12
1 -19z m-40 -160 c-3 -8 -6 -5 -6 6 -1 11 2 17 5 13 3 -3 4 -12 1 -19z m-10
-40 c-3 -8 -6 -5 -6 6 -1 11 2 17 5 13 3 -3 4 -12 1 -19z m-96 -295 c-12 -20
-14 -14 -5 12 4 9 9 14 11 11 3 -2 0 -13 -6 -23z"/>
<path d="M5835 5681 c-206 -96 -170 -404 53 -451 143 -31 284 81 284 228 1
140 -99 242 -237 242 -37 0 -75 -7 -100 -19z"/>
<path d="M1495 4471 c-121 -56 -169 -198 -109 -319 14 -29 41 -64 58 -77 40
-30 108 -55 150 -55 86 0 180 62 217 144 51 112 -9 263 -123 310 -51 22 -143
20 -193 -3z"/>
<path d="M2945 2061 c-83 -39 -136 -123 -136 -216 0 -97 46 -169 136 -211 95
-45 185 -28 262 51 63 65 83 131 64 213 -35 143 -196 223 -326 163z"/>
</g>
</svg>
